<svg width="40" height="40" viewBox="0 0 40 40" fill="none" xmlns="http://www.w3.org/2000/svg">
<path d="M20 40C31.0457 40 40 31.0457 40 20C40 8.9543 31.0457 0 20 0C8.9543 0 0 8.9543 0 20C0 31.0457 8.9543 40 20 40Z" fill="white"/>
<path d="M26.5023 6.13916H22.0718C19.4426 6.13916 16.5182 7.24497 16.5182 11.0561C16.531 12.384 16.5182 13.6558 16.5182 15.0871H13.4766V19.9273H16.6123V33.8612H22.3744V19.8353H26.1776L26.5217 15.0736H22.2751C22.2751 15.0736 22.2846 12.9553 22.2751 12.3402C22.2751 10.8341 23.8423 10.9203 23.9365 10.9203C24.6823 10.9203 26.1323 10.9225 26.5045 10.9203V6.13916H26.5023Z" fill="#2D2D2D"/>
</svg>
