<svg width="40" height="40" viewBox="0 0 40 40" fill="none" xmlns="http://www.w3.org/2000/svg">
<path d="M10.5059 21.4759H12.0915V30.0582H13.5917V21.4759H15.2068V20.0703H10.5059V21.4759Z" fill="white"/>
<path d="M23.1913 22.5256C22.6954 22.5256 22.2325 22.7965 21.7976 23.3325V20.0703H20.4492V30.0587H21.7976V29.3376C22.2489 29.8946 22.7113 30.1614 23.1913 30.1614C23.7278 30.1614 24.0887 29.879 24.2688 29.3249C24.3592 29.0094 24.4054 28.5139 24.4054 27.8252V24.8617C24.4054 24.1571 24.3592 23.6652 24.2688 23.3661C24.0891 22.8079 23.7274 22.5256 23.1913 22.5256ZM23.0563 27.9308C23.0563 28.6035 22.859 28.935 22.4695 28.935C22.2481 28.935 22.0226 28.829 21.7971 28.6031V24.0674C22.0226 23.8444 22.2481 23.7389 22.4695 23.7389C22.8586 23.7389 23.0563 24.0834 23.0563 24.7545V27.9308Z" fill="white"/>
<path d="M17.9336 28.3038C17.6345 28.7265 17.3517 28.9348 17.0808 28.9348C16.9008 28.9348 16.7981 28.8288 16.7653 28.6193C16.753 28.5759 16.753 28.4114 16.753 28.0955V22.6162H15.4043V28.5002C15.4043 29.026 15.4497 29.3812 15.5234 29.6071C15.6588 29.9844 15.9584 30.1612 16.3921 30.1612C16.8885 30.1612 17.3975 29.8616 17.9336 29.247V30.0589H19.2832V22.6162H17.9336V28.3038Z" fill="white"/>
<path d="M19.0901 15.7409C19.5292 15.7409 19.7399 15.3926 19.7399 14.697V11.5334C19.7399 10.8373 19.5292 10.4907 19.0901 10.4907C18.6506 10.4907 18.4395 10.8377 18.4395 11.5334V14.697C18.4395 15.393 18.6506 15.7409 19.0901 15.7409Z" fill="white"/>
<path d="M20 0C8.95427 0 0 8.95427 0 20C0 31.0457 8.95427 40 20 40C31.0457 40 40 31.0457 40 20C40 8.95427 31.0457 0 20 0ZM22.2245 9.35448H23.5834V14.8919C23.5834 15.2115 23.5834 15.3772 23.5998 15.4218C23.6297 15.6329 23.7369 15.741 23.9194 15.741C24.1919 15.741 24.478 15.5298 24.7804 15.103V9.35448H26.143V16.8753H24.7804V16.0552C24.2377 16.6772 23.7205 16.9788 23.2233 16.9788C22.7847 16.9788 22.4818 16.8008 22.3452 16.4203C22.2699 16.1923 22.2245 15.8326 22.2245 15.3019V9.35448ZM17.0774 11.8069C17.0774 11.0028 17.2141 10.4151 17.5038 10.035C17.8807 9.52061 18.4115 9.26363 19.0907 9.26363C19.7733 9.26363 20.3036 9.52061 20.6805 10.035C20.9661 10.4147 21.1028 11.0028 21.1028 11.8069V14.4405C21.1028 15.2401 20.9661 15.833 20.6805 16.2091C20.3036 16.7222 19.7733 16.9788 19.0907 16.9788C18.4115 16.9788 17.8807 16.7222 17.5038 16.2091C17.2141 15.833 17.0774 15.2397 17.0774 14.4405V11.8069ZM13.433 6.78302L14.506 10.7462L15.5368 6.78302H17.0652L15.2471 12.7881V16.8757H13.7363V12.7881C13.5992 12.0638 13.2968 11.0028 12.8119 9.59509C12.4935 8.65841 12.1616 7.71887 11.8433 6.78302H13.433ZM30.7666 30.7155C30.4933 31.9018 29.5231 32.7775 28.3548 32.908C25.5873 33.217 22.7879 33.2186 19.9988 33.217C17.2108 33.2186 14.4098 33.217 11.6432 32.908C10.4749 32.7775 9.50425 31.9022 9.23171 30.7155C8.84256 29.0259 8.84256 27.1808 8.84256 25.4408C8.84256 23.7009 8.84747 21.8562 9.23621 20.1661C9.50916 18.9794 10.479 18.1037 11.6473 17.9736C14.4143 17.6647 17.2149 17.663 20.0037 17.6647C22.7916 17.663 25.5922 17.6647 28.3593 17.9736C29.5276 18.1041 30.4982 18.9794 30.772 20.1661C31.1599 21.8562 31.1574 23.7009 31.1574 25.4408C31.1574 27.1808 31.1558 29.0259 30.7666 30.7155Z" fill="white"/>
<path d="M27.4868 22.5249C26.7969 22.5249 26.2612 22.7782 25.8717 23.2877C25.5856 23.6641 25.4551 24.246 25.4551 25.0411V27.6482C25.4551 28.4392 25.6012 29.0252 25.8884 29.3979C26.2776 29.9062 26.8149 30.1603 27.5203 30.1603C28.2246 30.1603 28.7774 29.8939 29.1506 29.3533C29.3143 29.1144 29.4207 28.8439 29.4657 28.5452C29.4784 28.4101 29.4944 28.111 29.4944 27.676V27.48H28.119C28.119 28.0201 28.1014 28.3201 28.0896 28.3933C28.0126 28.7539 27.8187 28.9339 27.4868 28.9339C27.0236 28.9339 26.7969 28.5902 26.7969 27.9019V26.5818H29.4944V25.0403C29.4944 24.2452 29.3597 23.6633 29.077 23.2868C28.7001 22.7786 28.1636 22.5249 27.4868 22.5249ZM28.1464 25.4597H26.7977V24.771C26.7977 24.0828 27.024 23.7386 27.4745 23.7386C27.9206 23.7386 28.1464 24.0832 28.1464 24.771V25.4597Z" fill="white"/>
</svg>
