<svg width="40" height="40" viewBox="0 0 40 40" fill="none" xmlns="http://www.w3.org/2000/svg">
<path d="M20 0C8.95427 0 0 8.95427 0 20C0 31.0457 8.95427 40 20 40C31.0457 40 40 31.0457 40 20C40 8.95427 31.0457 0 20 0ZM22.2245 9.35448H23.5834V14.8919C23.5834 15.2115 23.5834 15.3772 23.5998 15.4218C23.6297 15.6329 23.7369 15.741 23.9194 15.741C24.1919 15.741 24.478 15.5298 24.7804 15.103V9.35448H26.143V16.8753H24.7804V16.0552C24.2377 16.6772 23.7205 16.9788 23.2233 16.9788C22.7847 16.9788 22.4818 16.8008 22.3452 16.4203C22.2699 16.1923 22.2245 15.8326 22.2245 15.3019V9.35448ZM17.0774 11.8069C17.0774 11.0028 17.2141 10.4151 17.5038 10.035C17.8807 9.52061 18.4115 9.26363 19.0907 9.26363C19.7733 9.26363 20.3036 9.52061 20.6805 10.035C20.9661 10.4147 21.1028 11.0028 21.1028 11.8069V14.4405C21.1028 15.2401 20.9661 15.833 20.6805 16.2091C20.3036 16.7222 19.7733 16.9788 19.0907 16.9788C18.4115 16.9788 17.8807 16.7222 17.5038 16.2091C17.2141 15.833 17.0774 15.2397 17.0774 14.4405V11.8069ZM13.433 6.78302L14.506 10.7462L15.5368 6.78302H17.0652L15.2471 12.7881V16.8757H13.7363V12.7881C13.5992 12.0638 13.2968 11.0028 12.8119 9.59509C12.4935 8.65841 12.1616 7.71887 11.8433 6.78302H13.433ZM30.7666 30.7155C30.4933 31.9018 29.5231 32.7775 28.3548 32.908C25.5873 33.217 22.7879 33.2186 19.9988 33.217C17.2108 33.2186 14.4098 33.217 11.6432 32.908C10.4749 32.7775 9.50425 31.9022 9.23171 30.7155C8.84256 29.0259 8.84256 27.1808 8.84256 25.4408C8.84256 23.7009 8.84747 21.8562 9.23621 20.1661C9.50916 18.9794 10.479 18.1037 11.6473 17.9736C14.4143 17.6647 17.2149 17.663 20.0037 17.6647C22.7916 17.663 25.5922 17.6647 28.3593 17.9736C29.5276 18.1041 30.4982 18.9794 30.772 20.1661C31.1599 21.8562 31.1574 23.7009 31.1574 25.4408C31.1574 27.1808 31.1558 29.0259 30.7666 30.7155Z" fill="white"/>
</svg>
